<svg width="472" height="112" viewBox="0 0 472 112" fill="none" xmlns="http://www.w3.org/2000/svg">
<g id="Frame 1">
<path id="Vector" d="M61.504 36.3519C56.7207 48.1843 49.3027 39.8599 40.9273 25.3533C31.8068 12.1689 31 0.00398928 8.00001 0.00398928C7.99999 2.89998 8.00001 49.3599 8.00001 49.3599C8.00001 49.3599 38.964 49.3599 54.08 49.3599C54.08 63.8826 54.08 78.4053 54.08 92.928H8.00001C8.00001 92.928 8.00001 104.182 8.00001 111.36C52 111.36 82.824 111.36 153 111.36C153 97.6822 153 73.216 153 73.216C153 25.5999 120.456 0 82.824 0C56.712 0 71.232 12.2879 61.504 36.3519ZM68 73.216C68 36.352 55.432 19.2 82.824 19.2C110.216 19.2 132.5 36.352 132.5 73.216C132.5 92.928 132.5 92.928 84.5 92.928C36.5 92.928 68 92.928 68 73.216Z" fill="black"/>
<path id="Vector_2" d="M223.688 111.36C195.272 111.36 173 87.808 173 56.064C173 24.576 195.016 1.02399 223.944 1.02399C243.656 1.02399 256.968 11.264 264.392 26.112L263.88 3.32798H281.8V109.312H263.88L264.392 86.528C257.224 100.608 242.888 111.36 223.688 111.36ZM227.528 95.744C249.8 95.744 264.392 79.104 264.392 56.32C264.392 33.792 249.8 16.896 227.528 16.896C205.256 16.896 191.688 33.28 191.688 56.064C191.688 79.104 205.256 95.744 227.528 95.744Z" fill="black"/>
<path id="Vector_3" d="M345.32 111.36L301.8 3.07198H321.256L344.04 61.44C346.856 68.352 348.904 77.824 348.904 77.824C348.904 77.824 350.952 68.352 354.28 61.44L381.928 1.53598H384.232L412.392 61.184C415.72 68.352 418.024 77.824 418.024 77.824C418.024 77.824 420.072 68.096 422.888 61.184L445.672 3.07198H463.848L419.816 111.36H417.256L388.072 47.616C385 41.216 382.952 32 382.952 32C382.952 32 380.648 41.472 377.832 47.616L347.88 111.36H345.32Z" fill="black"/>
</g>
</svg>
